<?xml version="1.0" encoding="UTF-8" standalone="no"?>
<!-- Created with Inkscape (http://www.inkscape.org/) -->

<svg
   width="16"
   height="16"
   viewBox="0 0 16 16"
   version="1.1"
   id="svg1"
   inkscape:version="1.3.2 (091e20e, 2023-11-25, custom)"
   sodipodi:docname="MedScholar Space.svg"
   xmlns:inkscape="http://www.inkscape.org/namespaces/inkscape"
   xmlns:sodipodi="http://sodipodi.sourceforge.net/DTD/sodipodi-0.dtd"
   xmlns:xlink="http://www.w3.org/1999/xlink"
   xmlns="http://www.w3.org/2000/svg"
   xmlns:svg="http://www.w3.org/2000/svg"
   xmlns:rdf="http://www.w3.org/1999/02/22-rdf-syntax-ns#"
   xmlns:cc="http://creativecommons.org/ns#"
   xmlns:dc="http://purl.org/dc/elements/1.1/">
  <title
     id="title1">MedScholar Space</title>
  <sodipodi:namedview
     id="namedview1"
     pagecolor="#ffffff"
     bordercolor="#000000"
     borderopacity="0.25"
     inkscape:showpageshadow="2"
     inkscape:pageopacity="0.0"
     inkscape:pagecheckerboard="0"
     inkscape:deskcolor="#d1d1d1"
     inkscape:document-units="px"
     inkscape:zoom="11.844039"
     inkscape:cx="2.1107664"
     inkscape:cy="8.1475584"
     inkscape:window-width="1920"
     inkscape:window-height="1046"
     inkscape:window-x="-11"
     inkscape:window-y="-11"
     inkscape:window-maximized="1"
     inkscape:current-layer="layer1" />
  <defs
     id="defs1">
    <clipPath
       id="cp2">
      <path
         transform="scale(0.6666666)"
         d="M 0,0 H 1562.5 V 1562.5 H 0 Z"
         fill-rule="evenodd"
         id="path5" />
    </clipPath>
  </defs>
  <g
     inkscape:label="Layer 1"
     inkscape:groupmode="layer"
     id="layer1">
    <rect
       style="fill:#f2f2f2;stroke-width:1.02564"
       id="rect1"
       width="16.71727"
       height="17.054993"
       x="-0.42215329"
       y="-0.25329196" />
    <g
       clip-path="url(#cp2)"
       id="g8"
       transform="matrix(0.02482521,0,0,0.02482521,-4.3626232,-4.4303777)">
      <g
         id="Layer-1"
         data-name="P">
        <g
           id="Layer-2"
           data-name="P" />
        <symbol
           id="font_3_42">
          <path
             d="m 0.39500005,0.698 -0.029,-0.037 c -0.012,0.006667 -0.0233333,0.0126667 -0.034,0.018 -0.0106667,0.005333 -0.0216667,0.009667 -0.033,0.0130001 -0.0106667,0.003333 -0.0223334,0.005667 -0.035,0.007 -0.012,0.002 -0.026,0.003 -0.042,0.003 -0.0326667,-1e-8 -0.062,-0.005333 -0.088,-0.0159999 C 0.10866668,0.6753333 0.08700001,0.661 0.069,0.643 0.051,0.625 0.03733334,0.60433337 0.02800001,0.58100005 0.01866667,0.5576667 0.014,0.533 0.014,0.507 0.014,0.4716667 0.02466667,0.4393334 0.046,0.41 0.068,0.3806666 0.102,0.3583333 0.148,0.343 0.17,0.335667 0.1886667,0.3296667 0.204,0.325 0.2193333,0.320333 0.2336667,0.315667 0.247,0.311 0.2603333,0.307 0.2736667,0.302333 0.287,0.297 0.301,0.292333 0.317,0.2856666 0.335,0.277 0.3576667,0.2663333 0.373,0.2513334 0.381,0.232 0.389,0.2133333 0.393,0.1943333 0.393,0.175 0.393,0.151 0.388333,0.129 0.379,0.109 0.3696667,0.08966667 0.3573334,0.07333334 0.34200005,0.06 c -0.0153334,-0.01333333 -0.033,-0.02366666 -0.053,-0.031 -0.02,-0.0073333 -0.0403334,-0.011 -0.061,-0.011 -0.024,0 -0.047,0.004 -0.069,0.012 -0.022,0.0086667 -0.0423333,0.02066667 -0.061,0.036 C 0.07933334,0.08133333 0.063,0.10033333 0.049,0.123 0.03566667,0.14566668 0.02533333,0.171 0.018,0.199 0.016,0.207667 0.0123333,0.212 0.007,0.212 0.00233333,0.212 0,0.207333 0,0.198 V 0.019 C 0,0.0103333 0.003,0.006 0.009,0.006 c 0.004,0 0.00833333,0.00333333 0.013,0.01 l 0.03600001,0.052 c 0.008,-0.0073333 0.01766666,-0.015 0.029,-0.023 0.012,-0.008 0.025,-0.01533333 0.03900001,-0.022 0.0146667,-0.0066667 0.03,-0.012 0.046,-0.016 C 0.1886667,0.00233333 0.2056667,0 0.22300002,0 c 0.032,0 0.0616667,0.006 0.089,0.018 0.0273334,0.01133334 0.051,0.02733334 0.071,0.048 0.02,0.02066667 0.0356667,0.045 0.047,0.073 0.012,0.0286667 0.018,0.0593333 0.0179999,0.092 5e-8,0.0446667 -0.0106666,0.0823334 -0.032,0.113 -0.0206667,0.0313334 -0.0536666,0.0536667 -0.099,0.067 -0.0153333,0.004667 -0.0296667,0.008667 -0.043,0.012 -0.0133333,0.003333 -0.027,0.007 -0.041,0.011 -0.014,0.004 -0.0286667,0.008333 -0.044,0.013 -0.0153333,0.005333 -0.0323333,0.0116667 -0.051,0.019 C 0.11733333,0.474 0.10166667,0.48633338 0.091,0.503 0.08033335,0.5196667 0.07500001,0.53900006 0.07500001,0.56100007 c 0,0.0206666 0.0043333,0.0386666 0.013,0.0539999 0.0086667,0.016 0.01966666,0.029 0.03299999,0.0390001 0.014,0.01 0.0296667,0.0173332 0.047,0.0219999 0.018,0.005333 0.036,0.008 0.054,0.008 0.0273333,0 0.0513333,-0.004667 0.072,-0.014 0.0206667,-0.009333 0.038,-0.0216666 0.052,-0.037 0.014,-0.0153333 0.025,-0.033 0.033,-0.0529999 0.008667,-0.0200001 0.0143333,-0.0406667 0.017,-0.0620001 6.6665e-4,-0.006667 0.003667,-0.01 0.009,-0.01 0.004667,0 0.007,0.003333 0.007,0.01 v 0.17800006 c 0,0.006667 -0.002,0.01 -0.006,0.01 -0.003333,0 -0.007,-0.002667 -0.011,-0.008 z"
             id="path6" />
        </symbol>
        <use
           xlink:href="#font_3_42"
           transform="matrix(475.1105,0,0,-475.1105,578.9322,683.2569)"
           id="use6" />
      </g>
      <g
         id="g7"
         data-name="P">
        <g
           id="g6"
           data-name="P" />
        <symbol
           id="font_3_3c">
          <path
             d="M 0,0.016 V 0 H 0.176 V 0.016 H 0.09600001 V 0.63900008 L 0.319,0 H 0.332 L 0.55500009,0.643 V 0.016 H 0.475 V 0 h 0.25700008 v 0.016 h -0.08 v 0.64 h 0.08 v 0.0160001 h -0.185 L 0.36900003,0.158 0.185,0.67200008 H 0 V 0.656 h 0.08000001 v -0.64 z"
             id="path7" />
        </symbol>
        <use
           xlink:href="#font_3_3c"
           transform="matrix(482.6458,0,0,-482.6458,205.37738,681.25)"
           id="use7" />
      </g>
    </g>
  </g>
  <metadata
     id="metadata1">
    <rdf:RDF>
      <cc:Work
         rdf:about="">
        <dc:title>MedScholar Space</dc:title>
      </cc:Work>
    </rdf:RDF>
  </metadata>
</svg>
